<svg width="777" height="240" viewBox="0 0 777 240" fill="none" xmlns="http://www.w3.org/2000/svg">
<g clip-path="url(#clip0_21_5)">
<path opacity="0.2" d="M201 92C203.761 92 206 89.7614 206 87C206 84.2386 203.761 82 201 82C198.239 82 196 84.2386 196 87C196 89.7614 198.239 92 201 92Z" fill="#1BA169"/>
<path opacity="0.2" d="M94 116C96.7614 116 99 113.761 99 111C99 108.239 96.7614 106 94 106C91.2386 106 89 108.239 89 111C89 113.761 91.2386 116 94 116Z" fill="#1BA169"/>
<path opacity="0.2" d="M213 240C215.761 240 218 237.761 218 235C218 232.239 215.761 230 213 230C210.239 230 208 232.239 208 235C208 237.761 210.239 240 213 240Z" fill="#1BA169"/>
<path opacity="0.2" d="M525 229C527.209 229 529 227.209 529 225C529 222.791 527.209 221 525 221C522.791 221 521 222.791 521 225C521 227.209 522.791 229 525 229Z" fill="#1BA169"/>
<path opacity="0.2" d="M119 30C121.209 30 123 28.2091 123 26C123 23.7909 121.209 22 119 22C116.791 22 115 23.7909 115 26C115 28.2091 116.791 30 119 30Z" fill="#1BA169"/>
<path opacity="0.2" d="M674 133C676.761 133 679 130.761 679 128C679 125.239 676.761 123 674 123C671.239 123 669 125.239 669 128C669 130.761 671.239 133 674 133Z" fill="#1BA169"/>
<path opacity="0.2" d="M550 178C552.761 178 555 175.761 555 173C555 170.239 552.761 168 550 168C547.239 168 545 170.239 545 173C545 175.761 547.239 178 550 178Z" fill="#1BA169"/>
<path opacity="0.2" d="M464 82C468.418 82 472 78.4183 472 74C472 69.5817 468.418 66 464 66C459.582 66 456 69.5817 456 74C456 78.4183 459.582 82 464 82Z" fill="#1BA169"/>
<path d="M321.5 44C325.642 44 329 40.6421 329 36.5C329 32.3579 325.642 29 321.5 29C317.358 29 314 32.3579 314 36.5C314 40.6421 317.358 44 321.5 44Z" fill="#1BA169"/>
<path d="M559 8C561.209 8 563 6.20914 563 4C563 1.79086 561.209 0 559 0C556.791 0 555 1.79086 555 4C555 6.20914 556.791 8 559 8Z" fill="#1BA169"/>
<path d="M595.5 79C596.881 79 598 77.8807 598 76.5C598 75.1193 596.881 74 595.5 74C594.119 74 593 75.1193 593 76.5C593 77.8807 594.119 79 595.5 79Z" fill="#1BA169"/>
<path d="M592.5 202C593.881 202 595 200.881 595 199.5C595 198.119 593.881 197 592.5 197C591.119 197 590 198.119 590 199.5C590 200.881 591.119 202 592.5 202Z" fill="#1BA169"/>
<path d="M773 202C775.209 202 777 200.209 777 198C777 195.791 775.209 194 773 194C770.791 194 769 195.791 769 198C769 200.209 770.791 202 773 202Z" fill="#1BA169"/>
<path d="M4 184C6.20914 184 8 182.209 8 180C8 177.791 6.20914 176 4 176C1.79086 176 0 177.791 0 180C0 182.209 1.79086 184 4 184Z" fill="#1BA169"/>
<path d="M141 178C144.314 178 147 175.314 147 172C147 168.686 144.314 166 141 166C137.686 166 135 168.686 135 172C135 175.314 137.686 178 141 178Z" fill="#1BA169"/>
<path d="M263.5 133C265.433 133 267 131.433 267 129.5C267 127.567 265.433 126 263.5 126C261.567 126 260 127.567 260 129.5C260 131.433 261.567 133 263.5 133Z" fill="#1BA169"/>
</g>
<defs>
<clipPath id="clip0_21_5">
<rect width="777" height="240" fill="white"/>
</clipPath>
</defs>
</svg>
